<?xml version="1.0" encoding="UTF-8"?>
<svg id="Layer_2" data-name="Layer 2" xmlns="http://www.w3.org/2000/svg" viewBox="0 0 1163.41 215.06">
  <defs>
    <style>
      .cls-1, .cls-2 {
        fill: #fff;
        stroke-width: 0px;
      }

      .cls-2 {
        opacity: .6;
      }
    </style>
  </defs>
  <g id="Layer_1-2" data-name="Layer 1">
    <g>
      <g>
        <g>
          <path class="cls-1" d="m37.17,120.84C15.12,120.84.63,108.24,0,91.39h11.65c.95,9.13,7.72,20.16,25.51,20.16,15.28,0,24.25-8.98,24.25-20.32C61.42,58.79.94,79.27.94,37.85.94,20.84,14.96,8.4,36.22,8.4s33.54,11.65,35.43,26.77h-11.97c-1.26-7.72-8.66-17.17-23.94-17.32-12.91-.16-23.62,6.93-23.62,19.69,0,31.81,60.47,12.28,60.47,53.23,0,14.96-12.13,30.08-35.43,30.08Z"/>
          <path class="cls-1" d="m80.13,9.66h72.28v9.13h-30.55v100.95h-11.02V18.79h-30.71v-9.13Z"/>
          <path class="cls-1" d="m207.53,120.84c-30.87,0-54.49-23.15-54.49-56.22s23.62-56.22,54.49-56.22,54.49,23.31,54.49,56.22-23.47,56.22-54.49,56.22Zm0-9.61c24.41,0,43.15-17.8,43.15-46.62s-18.74-46.46-43.15-46.46-43.15,17.64-43.15,46.46,18.74,46.62,43.15,46.62Z"/>
          <path class="cls-1" d="m312.79,9.66c25.51,0,37.48,13.86,37.48,31.97,0,15.12-8.51,27.88-27.09,31.34l28.35,46.77h-13.23l-27.25-45.99h-20.32v45.99h-11.02V9.66h33.07Zm0,9.29h-22.05v45.83h22.2c17.96,0,25.99-9.76,25.99-23.15s-7.56-22.68-26.14-22.68Z"/>
          <path class="cls-1" d="m368.95,11.07h11.65l42.05,94.18,42.05-94.18h11.81v108.67h-11.02V32.97l-38.74,86.77h-8.03l-38.74-86.46v86.46h-11.02V11.07Z"/>
          <path class="cls-1" d="m548.01,8.4c24.57,0,42.84,12.28,50.71,33.39h-12.91c-6.14-14.65-19.06-23.78-37.8-23.78-24.1,0-42.52,17.8-42.52,46.62s18.43,46.46,42.52,46.46c18.74,0,31.65-9.13,37.8-23.47h12.91c-7.87,20.79-26.14,33.07-50.71,33.07-30.55,0-53.86-22.99-53.86-56.07s23.31-56.22,53.86-56.22Z"/>
          <path class="cls-1" d="m675.87,93.6h-50.08l-9.61,26.14h-11.65l40.16-108.67h12.44l40,108.67h-11.65l-9.61-26.14Zm-25.04-68.66l-21.73,59.53h43.47l-21.73-59.53Z"/>
          <path class="cls-1" d="m689.78,9.66h72.28v9.13h-30.55v100.95h-11.02V18.79h-30.71v-9.13Z"/>
          <path class="cls-1" d="m816.71,8.4c24.57,0,42.84,12.28,50.71,33.39h-12.91c-6.14-14.65-19.05-23.78-37.8-23.78-24.1,0-42.52,17.8-42.52,46.62s18.43,46.46,42.52,46.46c18.74,0,31.66-9.13,37.8-23.47h12.91c-7.87,20.79-26.14,33.07-50.71,33.07-30.55,0-53.86-22.99-53.86-56.07s23.31-56.22,53.86-56.22Z"/>
          <path class="cls-1" d="m955.51,68.24h-59.69v51.5h-11.02V9.66h11.02v49.45h59.69V9.66h11.02v110.08h-11.02v-51.5Z"/>
          <path class="cls-1" d="m1047.38,18.63h-46.46v41.1h41.73v9.13h-41.73v41.73h46.46v9.13h-57.48V9.5h57.48v9.13Z"/>
          <path class="cls-1" d="m1095.84,9.66c25.51,0,37.48,13.86,37.48,31.97,0,15.12-8.5,27.88-27.09,31.34l28.35,46.77h-13.23l-27.24-45.99h-20.32v45.99h-11.02V9.66h33.07Zm0,9.29h-22.05v45.83h22.21c17.95,0,25.99-9.76,25.99-23.15s-7.56-22.68-26.14-22.68Z"/>
        </g>
        <path class="cls-1" d="m1144.96,9.52c0-5.34,3.79-9.52,9.22-9.52s9.22,4.19,9.22,9.52-3.79,9.52-9.22,9.52-9.22-4.19-9.22-9.52Zm1,0c0,4.84,3.34,8.58,8.23,8.58s8.23-3.74,8.23-8.58-3.34-8.58-8.23-8.58-8.23,3.74-8.23,8.58Zm9.03.6h-.05l3.44,4.69-1.1.05-3.44-4.74h-1.99v4.74h-1V4.19h4.14c2.04,0,3.29,1.05,3.29,2.94s-1.25,2.99-3.29,2.99Zm-3.14-4.99v4.04h3.04c1.4,0,2.39-.6,2.39-2.05s-1-1.99-2.39-1.99h-3.04Z"/>
      </g>
      <g>
        <path class="cls-1" d="m370.71,208.84h-11.43l-2.19,5.97h-2.66l9.17-24.8h2.84l9.13,24.8h-2.66l-2.19-5.97Zm-.75-2.08l-4.96-13.59-4.96,13.59h9.92Z"/>
        <path class="cls-1" d="m398.09,214.19c-1.26-.57-2.25-1.38-2.97-2.41s-1.1-2.18-1.15-3.45h2.66c.12,1.22.66,2.3,1.62,3.22.96.92,2.36,1.38,4.21,1.38,1.7,0,3.05-.44,4.04-1.31.99-.87,1.49-1.98,1.49-3.33,0-1.08-.28-1.95-.83-2.61-.55-.66-1.23-1.15-2.05-1.47-.82-.32-1.94-.68-3.38-1.06-1.68-.45-3.01-.9-3.99-1.33-.98-.43-1.82-1.1-2.52-2.01-.69-.91-1.04-2.14-1.04-3.7,0-1.29.33-2.45,1.01-3.47.67-1.02,1.62-1.82,2.84-2.39,1.22-.58,2.62-.86,4.21-.86,2.32,0,4.2.57,5.63,1.71,1.43,1.14,2.25,2.61,2.46,4.4h-2.73c-.17-1.03-.73-1.95-1.69-2.75s-2.25-1.2-3.88-1.2c-1.51,0-2.77.4-3.77,1.2-1.01.8-1.51,1.9-1.51,3.29,0,1.06.28,1.91.83,2.55.55.65,1.24,1.14,2.07,1.47.83.34,1.95.7,3.36,1.08,1.63.46,2.95.91,3.95,1.35,1.01.44,1.86,1.12,2.55,2.03.69.91,1.04,2.13,1.04,3.67,0,1.17-.31,2.29-.94,3.34-.62,1.05-1.55,1.91-2.77,2.55-1.22.65-2.68.97-4.39.97s-3.11-.29-4.37-.86Z"/>
        <path class="cls-1" d="m431.75,202.12c-1.41,1.32-3.53,1.98-6.36,1.98h-5.07v10.71h-2.52v-25.13h7.59c2.8,0,4.92.66,6.34,1.98,1.43,1.32,2.14,3.07,2.14,5.25s-.71,3.89-2.12,5.21Zm-.47-5.21c0-1.68-.47-2.95-1.4-3.81-.93-.86-2.43-1.29-4.49-1.29h-5.07v10.14h5.07c3.93,0,5.89-1.68,5.89-5.03Z"/>
        <path class="cls-1" d="m442.59,191.73v9.38h9.53v2.08h-9.53v9.53h10.6v2.08h-13.12v-25.16h13.12v2.08h-10.6Z"/>
        <path class="cls-1" d="m460.28,195.59c1.08-1.95,2.55-3.47,4.42-4.57,1.87-1.09,3.95-1.64,6.25-1.64,2.8,0,5.21.67,7.21,2,2,1.33,3.46,3.21,4.37,5.63h-2.95c-.72-1.7-1.82-3.03-3.29-3.99-1.47-.96-3.25-1.44-5.34-1.44-1.85,0-3.5.43-4.98,1.29-1.47.86-2.63,2.1-3.47,3.72-.84,1.62-1.26,3.49-1.26,5.63s.42,4,1.26,5.61c.84,1.61,1.99,2.84,3.47,3.7,1.47.86,3.13,1.29,4.98,1.29,2.08,0,3.86-.47,5.34-1.42,1.47-.95,2.57-2.26,3.29-3.94h2.95c-.91,2.4-2.37,4.25-4.39,5.57-2.01,1.32-4.41,1.98-7.19,1.98-2.3,0-4.39-.55-6.25-1.64s-3.34-2.61-4.42-4.55-1.62-4.15-1.62-6.61.54-4.68,1.62-6.63Z"/>
        <path class="cls-1" d="m492.06,189.68v25.13h-2.52v-25.13h2.52Z"/>
        <path class="cls-1" d="m514.44,208.84h-11.43l-2.19,5.97h-2.66l9.17-24.8h2.84l9.13,24.8h-2.66l-2.19-5.97Zm-.75-2.08l-4.96-13.59-4.96,13.59h9.92Z"/>
        <path class="cls-1" d="m527.92,212.76h9.02v2.05h-11.54v-25.13h2.52v23.08Z"/>
        <path class="cls-1" d="m545.38,189.68v25.13h-2.52v-25.13h2.52Z"/>
        <path class="cls-1" d="m556.81,214.19c-1.26-.57-2.25-1.38-2.97-2.41s-1.1-2.18-1.15-3.45h2.66c.12,1.22.66,2.3,1.62,3.22.96.92,2.36,1.38,4.21,1.38,1.7,0,3.05-.44,4.04-1.31.99-.87,1.49-1.98,1.49-3.33,0-1.08-.28-1.95-.83-2.61-.55-.66-1.23-1.15-2.05-1.47-.82-.32-1.94-.68-3.38-1.06-1.68-.45-3.01-.9-3.99-1.33-.98-.43-1.82-1.1-2.52-2.01-.69-.91-1.04-2.14-1.04-3.7,0-1.29.33-2.45,1.01-3.47.67-1.02,1.62-1.82,2.84-2.39,1.22-.58,2.62-.86,4.21-.86,2.32,0,4.2.57,5.63,1.71,1.43,1.14,2.25,2.61,2.46,4.4h-2.73c-.17-1.03-.73-1.95-1.69-2.75s-2.25-1.2-3.88-1.2c-1.51,0-2.77.4-3.77,1.2-1.01.8-1.51,1.9-1.51,3.29,0,1.06.28,1.91.83,2.55.55.65,1.24,1.14,2.07,1.47.83.34,1.95.7,3.36,1.08,1.63.46,2.95.91,3.95,1.35,1.01.44,1.86,1.12,2.55,2.03.69.91,1.04,2.13,1.04,3.67,0,1.17-.31,2.29-.94,3.34-.62,1.05-1.55,1.91-2.77,2.55-1.22.65-2.68.97-4.39.97s-3.11-.29-4.37-.86Z"/>
        <path class="cls-1" d="m590.58,189.68v2.08h-6.97v23.04h-2.52v-23.04h-7.01v-2.08h16.5Z"/>
        <path class="cls-1" d="m612.33,212.76h9.02v2.05h-11.54v-25.13h2.52v23.08Z"/>
        <path class="cls-1" d="m642.74,208.84h-11.43l-2.19,5.97h-2.66l9.17-24.8h2.84l9.13,24.8h-2.66l-2.19-5.97Zm-.75-2.08l-4.96-13.59-4.96,13.59h9.92Z"/>
        <path class="cls-1" d="m682.59,189.68l-7.12,25.13h-2.8l-6.33-21.42-6.47,21.42-2.73.04-6.97-25.16h2.7l5.75,22.04,6.44-22.04h2.8l6.25,22.04,5.79-22.04h2.7Z"/>
        <path class="cls-1" d="m715.27,189.68v2.08h-11.07v9.38h9.35v2.08h-9.35v11.58h-2.52v-25.13h13.59Z"/>
        <path class="cls-1" d="m723.96,189.68v25.13h-2.52v-25.13h2.52Z"/>
        <path class="cls-1" d="m745.61,214.8l-6.22-10.5h-4.64v10.5h-2.52v-25.13h7.55c2.8,0,4.93.67,6.38,2.01,1.45,1.34,2.18,3.1,2.18,5.28,0,1.82-.52,3.37-1.56,4.66-1.04,1.28-2.58,2.12-4.62,2.5l6.47,10.68h-3.02Zm-10.86-12.55h5.07c1.96,0,3.44-.48,4.44-1.44.99-.96,1.49-2.24,1.49-3.85s-.48-2.93-1.44-3.83c-.96-.9-2.47-1.35-4.53-1.35h-5.03v10.46Z"/>
        <path class="cls-1" d="m780.16,190v24.8h-2.52v-19.81l-8.84,19.81h-1.83l-8.84-19.74v19.74h-2.52v-24.8h2.66l9.6,21.5,9.6-21.5h2.7Z"/>
      </g>
      <rect class="cls-2" x="566.54" y="-195.5" width="1.51" height="701.23" transform="translate(722.41 -412.18) rotate(90)"/>
    </g>
  </g>
</svg>