<?xml version="1.0" encoding="UTF-8"?>
<svg id="Layer_2" data-name="Layer 2" xmlns="http://www.w3.org/2000/svg" viewBox="0 0 1163.41 215.22">
  <defs>
    <style>
      .cls-1 {
        fill: #00555a;
        opacity: .6;
      }

      .cls-1, .cls-2 {
        stroke-width: 0px;
      }
    </style>
  </defs>
  <g id="Layer_1-2" data-name="Layer 1">
    <g>
      <path class="cls-2" d="m233.6,210.19h-9.99l-1.65,4.78h-5.28l9.02-25.11h5.86l9.02,25.11h-5.32l-1.65-4.78Zm-4.99-14.51l-3.63,10.49h7.26l-3.63-10.49Z"/>
      <path class="cls-2" d="m290.62,215.22c-5.21,0-9.23-2.73-9.3-7.47h5.39c.14,2.01,1.47,3.34,3.81,3.34s3.77-1.26,3.77-3.05c0-5.42-12.93-2.16-12.9-11.25,0-4.53,3.66-7.26,8.84-7.26s8.66,2.62,8.98,7.15h-5.53c-.11-1.65-1.44-2.95-3.59-2.98-1.98-.07-3.45.9-3.45,2.95,0,5.03,12.86,2.23,12.86,11.07,0,3.95-3.16,7.51-8.87,7.51Z"/>
      <path class="cls-2" d="m327.81,205.34h-4.2v9.63h-5.03v-25.08h9.23c6.04,0,9.05,3.41,9.05,7.76,0,3.81-2.59,7.69-9.05,7.69Zm-.22-4.06c2.84,0,4.1-1.4,4.1-3.63s-1.26-3.66-4.1-3.66h-3.99v7.29h3.99Z"/>
      <path class="cls-2" d="m369.71,193.95h-9.52v6.29h8.44v3.99h-8.44v6.65h9.52v4.1h-14.55v-25.11h14.55v4.1Z"/>
      <path class="cls-2" d="m400.5,189.57c5.57,0,10.1,2.98,11.78,8.12h-5.78c-1.19-2.41-3.34-3.59-6.04-3.59-4.38,0-7.51,3.2-7.51,8.3s3.13,8.3,7.51,8.3c2.7,0,4.85-1.19,6.04-3.63h5.78c-1.69,5.17-6.22,8.12-11.78,8.12-7.22,0-12.72-5.28-12.72-12.79s5.5-12.83,12.72-12.83Z"/>
      <path class="cls-2" d="m431.33,189.89h5.03v25.08h-5.03v-25.08Z"/>
      <path class="cls-2" d="m471.43,210.19h-9.99l-1.65,4.78h-5.28l9.02-25.11h5.86l9.02,25.11h-5.32l-1.65-4.78Zm-4.99-14.51l-3.63,10.49h7.26l-3.63-10.49Z"/>
      <path class="cls-2" d="m501.54,189.89v21.09h8.26v3.99h-13.29v-25.08h5.03Z"/>
      <path class="cls-2" d="m527.73,189.89h5.03v25.08h-5.03v-25.08Z"/>
      <path class="cls-2" d="m561.11,215.22c-5.21,0-9.23-2.73-9.3-7.47h5.39c.14,2.01,1.47,3.34,3.81,3.34s3.77-1.26,3.77-3.05c0-5.42-12.93-2.16-12.9-11.25,0-4.53,3.66-7.26,8.84-7.26s8.66,2.62,8.98,7.15h-5.53c-.11-1.65-1.44-2.95-3.59-2.98-1.98-.07-3.45.9-3.45,2.95,0,5.03,12.86,2.23,12.86,11.07,0,3.95-3.16,7.51-8.87,7.51Z"/>
      <path class="cls-2" d="m587.74,189.89h18.39v4.06h-6.68v21.02h-5.03v-21.02h-6.68v-4.06Z"/>
      <path class="cls-2" d="m652.85,189.89v21.09h8.26v3.99h-13.29v-25.08h5.03Z"/>
      <path class="cls-2" d="m694.42,210.19h-9.99l-1.65,4.78h-5.28l9.02-25.11h5.86l9.02,25.11h-5.32l-1.65-4.78Zm-4.99-14.51l-3.63,10.49h7.26l-3.63-10.49Z"/>
      <path class="cls-2" d="m717.81,189.89h5.39l4.42,19.47,5.1-19.47h5.6l4.81,19.36,4.45-19.36h5.43l-7.01,25.08h-5.93l-4.71-17.86-4.92,17.86-5.89.04-6.75-25.11Z"/>
      <path class="cls-2" d="m794.31,189.89h15.48v4.06h-10.45v6.43h8.01v3.99h-8.01v10.6h-5.03v-25.08Z"/>
      <path class="cls-2" d="m828.08,189.89h5.03v25.08h-5.03v-25.08Z"/>
      <path class="cls-2" d="m862.22,189.89c6.04,0,9.05,3.49,9.05,7.69,0,3.05-1.69,6.14-5.71,7.22l6,10.17h-5.82l-5.53-9.77h-2.37v9.77h-5.03v-25.08h9.41Zm-.18,4.17h-4.2v7.36h4.2c2.8,0,4.06-1.47,4.06-3.74s-1.26-3.63-4.06-3.63Z"/>
      <path class="cls-2" d="m890.57,189.89h5.71l7.98,18.65,7.97-18.65h5.68v25.08h-5.03v-16.31l-6.72,16.31h-3.81l-6.75-16.31v16.31h-5.03v-25.08Z"/>
    </g>
    <g>
      <g>
        <g>
          <path class="cls-2" d="m37.17,120.84C15.12,120.84.63,108.24,0,91.39h11.65c.95,9.13,7.72,20.16,25.51,20.16,15.28,0,24.25-8.98,24.25-20.32C61.42,58.79.94,79.27.94,37.85.94,20.84,14.96,8.4,36.22,8.4s33.54,11.65,35.43,26.77h-11.97c-1.26-7.72-8.66-17.17-23.94-17.32-12.91-.16-23.62,6.93-23.62,19.69,0,31.81,60.47,12.28,60.47,53.23,0,14.96-12.13,30.08-35.43,30.08Z"/>
          <path class="cls-2" d="m80.13,9.66h72.28v9.13h-30.55v100.95h-11.02V18.79h-30.71v-9.13Z"/>
          <path class="cls-2" d="m207.53,120.84c-30.87,0-54.49-23.15-54.49-56.22s23.62-56.22,54.49-56.22,54.49,23.31,54.49,56.22-23.47,56.22-54.49,56.22Zm0-9.61c24.41,0,43.15-17.8,43.15-46.62s-18.74-46.46-43.15-46.46-43.15,17.64-43.15,46.46,18.74,46.62,43.15,46.62Z"/>
          <path class="cls-2" d="m312.79,9.66c25.51,0,37.48,13.86,37.48,31.97,0,15.12-8.51,27.88-27.09,31.34l28.35,46.77h-13.23l-27.25-45.99h-20.32v45.99h-11.02V9.66h33.07Zm0,9.29h-22.05v45.83h22.2c17.96,0,25.99-9.76,25.99-23.15s-7.56-22.68-26.14-22.68Z"/>
          <path class="cls-2" d="m368.95,11.07h11.65l42.05,94.18,42.05-94.18h11.81v108.67h-11.02V32.97l-38.74,86.77h-8.03l-38.74-86.46v86.46h-11.02V11.07Z"/>
          <path class="cls-2" d="m548.01,8.4c24.57,0,42.84,12.28,50.71,33.39h-12.91c-6.14-14.65-19.06-23.78-37.8-23.78-24.1,0-42.52,17.8-42.52,46.62s18.43,46.46,42.52,46.46c18.74,0,31.65-9.13,37.8-23.47h12.91c-7.87,20.79-26.14,33.07-50.71,33.07-30.55,0-53.86-22.99-53.86-56.07s23.31-56.22,53.86-56.22Z"/>
          <path class="cls-2" d="m675.87,93.6h-50.08l-9.61,26.14h-11.65l40.16-108.67h12.44l40,108.67h-11.65l-9.61-26.14Zm-25.04-68.66l-21.73,59.53h43.47l-21.73-59.53Z"/>
          <path class="cls-2" d="m689.78,9.66h72.28v9.13h-30.55v100.95h-11.02V18.79h-30.71v-9.13Z"/>
          <path class="cls-2" d="m816.71,8.4c24.57,0,42.84,12.28,50.71,33.39h-12.91c-6.14-14.65-19.05-23.78-37.8-23.78-24.1,0-42.52,17.8-42.52,46.62s18.43,46.46,42.52,46.46c18.74,0,31.66-9.13,37.8-23.47h12.91c-7.87,20.79-26.14,33.07-50.71,33.07-30.55,0-53.86-22.99-53.86-56.07s23.31-56.22,53.86-56.22Z"/>
          <path class="cls-2" d="m955.51,68.24h-59.69v51.5h-11.02V9.66h11.02v49.45h59.69V9.66h11.02v110.08h-11.02v-51.5Z"/>
          <path class="cls-2" d="m1047.38,18.63h-46.46v41.1h41.73v9.13h-41.73v41.73h46.46v9.13h-57.48V9.5h57.48v9.13Z"/>
          <path class="cls-2" d="m1095.84,9.66c25.51,0,37.48,13.86,37.48,31.97,0,15.12-8.5,27.88-27.09,31.34l28.35,46.77h-13.23l-27.24-45.99h-20.32v45.99h-11.02V9.66h33.07Zm0,9.29h-22.05v45.83h22.21c17.95,0,25.99-9.76,25.99-23.15s-7.56-22.68-26.14-22.68Z"/>
        </g>
        <path class="cls-2" d="m1144.96,9.52c0-5.34,3.79-9.52,9.22-9.52s9.22,4.19,9.22,9.52-3.79,9.52-9.22,9.52-9.22-4.19-9.22-9.52Zm1,0c0,4.84,3.34,8.58,8.23,8.58s8.23-3.74,8.23-8.58-3.34-8.58-8.23-8.58-8.23,3.74-8.23,8.58Zm9.03.6h-.05l3.44,4.69-1.1.05-3.44-4.74h-1.99v4.74h-1V4.19h4.14c2.04,0,3.29,1.05,3.29,2.94s-1.25,2.99-3.29,2.99Zm-3.14-4.99v4.04h3.04c1.4,0,2.39-.6,2.39-2.05s-1-1.99-2.39-1.99h-3.04Z"/>
      </g>
      <rect class="cls-1" x="566.54" y="-195.5" width="1.51" height="701.23" transform="translate(722.41 -412.18) rotate(90)"/>
    </g>
  </g>
</svg>